<?xml version="1.0" standalone="no"?>
<!DOCTYPE svg PUBLIC "-//W3C//DTD SVG 20010904//EN"
 "http://www.w3.org/TR/2001/REC-SVG-20010904/DTD/svg10.dtd">
<svg version="1.0" xmlns="http://www.w3.org/2000/svg"
 width="544.000000pt" height="544.000000pt" viewBox="0 0 544.000000 544.000000"
 preserveAspectRatio="xMidYMid meet">
<metadata>
Created by potrace 1.11, written by Peter Selinger 2001-2013
</metadata>
<g transform="translate(0.000000,544.000000) scale(0.100000,-0.100000)"
fill="#000000" stroke="none">
<path d="M2485 5339 c-33 -11 -64 -21 -70 -23 -5 -1 -34 -14 -62 -29 -29 -15
-56 -27 -59 -26 -4 0 -10 -3 -13 -8 -3 -5 -27 -23 -52 -40 -166 -114 -302
-329 -346 -548 -3 -16 -6 -653 -7 -1414 -1 -1361 -1 -1384 18 -1395 11 -6 29
-19 40 -28 11 -10 23 -18 26 -18 4 0 16 -8 27 -17 12 -10 84 -63 162 -118 78
-55 209 -148 292 -207 l150 -108 1 -625 0 -625 146 3 146 2 -1 53 c-1 28 -5
57 -8 62 -3 6 -3 10 2 10 9 0 8 202 -1 225 -3 8 -2 15 2 15 4 0 6 17 5 37 -3
60 -4 85 -3 136 0 26 0 55 0 65 0 9 -1 64 -1 122 0 58 0 112 -1 120 0 8 0 26
1 40 2 53 2 76 2 90 -1 8 -1 29 0 45 0 17 0 37 -1 45 0 8 0 24 0 35 1 11 2 49
3 84 l2 65 180 128 c99 71 205 146 235 167 268 186 300 212 301 244 1 18 1 36
0 41 -1 5 -2 50 -1 100 1 50 1 98 1 106 0 8 0 47 0 85 1 39 1 77 0 85 0 8 0
42 0 75 1 60 0 104 -4 203 -1 28 0 52 3 52 3 0 4 73 2 162 -1 90 -2 190 -1
223 1 59 0 100 -4 203 -1 28 0 52 3 52 3 0 4 60 3 132 -2 73 -2 174 -2 223 0
50 0 97 0 105 0 8 0 47 0 85 1 39 1 77 0 85 0 8 0 42 0 75 1 60 0 104 -4 203
-1 28 0 52 3 52 6 0 4 133 -4 295 -7 162 -52 307 -133 439 -72 116 -221 246
-354 308 -126 59 -176 68 -378 67 -158 0 -195 -3 -246 -20z m415 -298 c137
-47 264 -159 325 -286 19 -40 35 -79 35 -87 0 -15 -526 -548 -540 -548 -13 0
-540 533 -540 547 0 30 63 145 110 202 76 91 201 169 302 186 18 4 35 9 38 12
13 14 208 -5 270 -26z m-176 -1341 c3 3 129 129 281 280 l275 274 0 -74 c1
-88 1 -84 0 -220 l0 -105 -280 -280 -280 -280 -107 111 c-60 62 -186 192 -280
289 l-173 178 0 91 c0 50 0 100 -1 111 0 11 0 56 1 100 l0 79 280 -279 c154
-153 281 -277 284 -275z m-149 -880 c0 -105 -1 -190 -3 -190 -1 0 -94 92 -206
204 l-204 205 -1 193 -1 193 208 -208 207 -208 0 -189z m720 410 c0 -104 -3
-190 -7 -190 -4 0 -52 -45 -105 -101 -54 -55 -144 -149 -201 -207 l-103 -107
1 40 c1 22 1 45 0 50 -1 6 -1 15 0 20 5 20 1 125 -4 134 -4 5 -2 12 3 15 5 3
5 21 1 41 -4 19 -4 35 0 35 4 0 5 10 3 23 -4 19 31 59 203 230 114 114 208
207 208 207 1 0 2 -85 1 -190z m0 -896 l0 -286 -95 -69 c-52 -38 -103 -76
-113 -84 -9 -8 -21 -15 -26 -15 -5 0 -11 -3 -13 -7 -3 -9 -157 -125 -159 -121
-3 5 -9 53 -10 66 0 6 0 28 0 47 0 19 0 43 -1 53 0 9 0 28 1 42 1 14 1 34 1
45 0 28 -1 78 -1 90 0 6 1 35 3 65 l4 55 204 203 c111 111 203 202 204 202 1
0 1 -129 1 -286z m-920 58 l200 -199 0 -231 c0 -154 -3 -228 -10 -224 -23 13
-80 58 -83 65 -2 4 -8 7 -13 7 -11 0 -92 60 -97 73 -2 4 -8 7 -13 7 -5 0 -17
7 -26 15 -10 8 -52 39 -94 69 l-75 55 -3 58 c-1 32 -2 65 -2 73 0 8 1 111 1
228 0 117 4 211 8 208 4 -2 97 -94 207 -204z"/>
</g>
</svg>
