<?xml version="1.0" encoding="utf-8"?>
<!-- Generator: Adobe Illustrator 22.1.0, SVG Export Plug-In . SVG Version: 6.00 Build 0)  -->
<svg version="1.1" id="Layer_1" xmlns="http://www.w3.org/2000/svg" xmlns:xlink="http://www.w3.org/1999/xlink" x="0px" y="0px"
	 viewBox="0 0 126.2 39.3" style="enable-background:new 0 0 126.2 39.3;" xml:space="preserve">
<style type="text/css">
	.st0{fill:#ffffff;}
</style>
<title>logo-5</title>
<path class="st0" d="M20.4,12.7h2v13.9h6v2h-8C20.4,28.6,20.4,12.7,20.4,12.7z M34.6,12.7c3.3,0,6,2.7,6,6s-2.7,6-6,6s-6-2.7-6-6
	S31.3,12.7,34.6,12.7z M34.6,22.7c2.2,0,4-1.8,4-4s-1.8-4-4-4s-4,1.8-4,4S32.4,22.7,34.6,22.7L34.6,22.7z M30.6,26.7h8v2h-8V26.7z
	 M56.2,28.7h-2v-1.4c-1.3,0.9-2.8,1.4-4.4,1.4c-4.4,0-8-3.5-8.1-7.9s3.5-8,7.9-8.1c2.3,0,4.6,1,6.1,2.8l-1.4,1.2
	c-2.2-2.5-6-2.7-8.5-0.5s-2.7,6-0.5,8.5c1.1,1.3,2.8,2,4.5,2s3.3-0.7,4.4-2h-5.4v-2h7.4V28.7z M63.6,12.8c3.3,0,6,2.7,6,6
	s-2.7,6-6,6c-3.3,0-6-2.7-6-6C57.5,15.4,60.2,12.7,63.6,12.8C63.5,12.7,63.6,12.7,63.6,12.8L63.6,12.8z M63.6,22.8c2.2,0,4-1.8,4-4
	s-1.8-4-4-4c-2.2,0-4,1.8-4,4S61.4,22.7,63.6,22.8L63.6,22.8z M59.6,26.7h8v2h-8V26.7z M71.7,12.7h2v15.9h-2V12.7z M76.5,12.7h2
	c0.1,0,0.2,0,0.3,0c3.3-0.4,6.3,2,6.6,5.3c0.4,3.3-2,6.3-5.3,6.6c-0.4,0-0.9,0-1.3,0h-0.3v4h-2C76.5,28.6,76.5,12.7,76.5,12.7z
	 M78.5,14.7v7.9h0.3c2.2,0.3,4.2-1.2,4.5-3.4s-1.2-4.2-3.4-4.5c-0.4,0-0.7,0-1.1,0C78.7,14.7,78.5,14.7,78.5,14.7L78.5,14.7z
	 M92.9,13.9L91.4,15c-0.7-0.8-2-0.8-2.7-0.1c-0.3,0.3-0.5,0.7-0.6,1.2v0.2c0,0.9,0.6,1.5,1.8,1.5c4.6,0.3,6.7,2.4,6.7,5.3v0.2
	c-0.3,3.2-3.2,5.6-6.5,5.3c-1.4-0.1-2.7-0.8-3.7-1.8l1.5-1.2c0.7,0.8,1.7,1.2,2.8,1.1c2,0.1,3.7-1.4,3.9-3.4v-0.1
	c0-2.7-2.6-3.2-4.9-3.4c-2.1-0.2-3.6-1.5-3.6-3.4v-0.1c0.2-2,1.9-3.6,3.9-3.6C91.1,12.7,92.1,13.2,92.9,13.9L92.9,13.9z M104.4,26.6
	c2.5,0,4.5-2.7,4.5-6v-8h2v8c0,4.4-2.9,8-6.4,8s-6.4-3.5-6.4-8v-8h2v8C99.9,24,101.9,26.6,104.4,26.6L104.4,26.6z M126.2,28.6h-2
	v-9.9l-4.6,6l-4.6-6v9.9h-2V12.7l6.6,8.7l6.6-8.7V28.6z"/>
<path class="st0" d="M10.8,10.3c0-3-2.4-5.4-5.4-5.4S0,7.3,0,10.3v16.5L4.5,30v7.8h1.8V30l4.5-3.2V10.3z M8.8,19.5l-2.5,2.6v-2.4
	l2.6-2.6v2.4H8.8z M1.8,17.1l2.6,2.6v2.4l-2.6-2.6V17.1z M8.8,14.4l-3.5,3.5l-3.5-3.6v-2.4l3.5,3.5l3.5-3.5V14.4z M5.3,6.8
	c1.6,0,3,1.1,3.4,2.6l-3.4,3.4L1.9,9.4C2.3,7.9,3.7,6.8,5.3,6.8L5.3,6.8z M1.8,25.8v-3.6l2.6,2.6v2.9L1.8,25.8z M6.3,27.6v-2.9
	l2.6-2.6v3.6L6.3,27.6z"/>
</svg>
